<svg xmlns:xlink="http://www.w3.org/1999/xlink" xmlns="http://www.w3.org/2000/svg" width="49" height="47" viewBox="0 0 49 47" fill="none">
<g clip-path="url(#clip0_2_6)">
<path opacity="0.5" d="M48.7794 0.312549L36.8417 42.6024C36.781 42.7943 36.5382 42.8519 36.3965 42.7175L28.4043 35.1349L34.3934 13.942C34.4541 13.7501 34.272 13.5773 34.0697 13.6349L11.732 19.3171L3.78031 11.7728C3.63868 11.6385 3.69938 11.4081 3.90171 11.3505L48.4556 0.00540598C48.658 -0.032987 48.8401 0.139781 48.7794 0.312549Z" fill="#00B37E"/>
<path opacity="0.5" d="M28.4039 35.1348L25.3285 46.0768C25.2678 46.2687 25.025 46.3263 24.8833 46.192L0.0771898 22.6763C-0.0644439 22.5419 -0.00374402 22.3115 0.19859 22.254L11.7316 19.3169L28.4039 35.1348Z" fill="#00B37E"/>
<path d="M34.3921 13.9419L28.403 35.1348L11.7307 19.3169L34.0684 13.6348C34.2707 13.5772 34.4528 13.75 34.3921 13.9419Z" fill="#00B37E"/>
</g>
<defs>
<clipPath id="clip0_2_6">
<rect width="49" height="47" fill="white"/>
</clipPath>
</defs>
</svg>